{"title":"IMPACT.WRESTLING.2016.05.31.HDTV.XviD-FICEK9","uid":15115942,"size":939174110,"categoryP":"video","categoryS":"tv_shows","magnet":"?xt=urn:btih:c043ff7ada815e7ead79ada19fee87dafe331426&amp;dn=IMPACT.WRESTLING.2016.05.31.HDTV.XviD-FICEK9&amp;tr=udp%3A%2F%2Ftracker.leechers-paradise.org%3A6969&amp;tr=udp%3A%2F%2Fzer0day.ch%3A1337&amp;tr=udp%3A%2F%2Fopen.demonii.com%3A1337&amp;tr=udp%3A%2F%2Ftracker.coppersurfer.tk%3A6969&amp;tr=udp%3A%2F%2Fexodus.desync.com%3A6969","seeders":0,"leechers":1,"uploader":"FICEK9","files":2,"time":1467048031,"description":"\n   General\r\n      Complete name : IMPACT.WRESTLING.2016.05.31.HDTV.XviD-FICEK9.avi\r\n      Format : AVI\r\n      Format/Info : Audio Video Interleave\r\n      File size : 896 MiB\r\n      Duration : 1h 24mn\r\n      Overall bit rate mode : Variable\r\n      Overall bit rate : 1 481 Kbps\r\n      Writing application : MEncoder sherpya-r37853+g6d7f566-5.3.1\r\n      Writing library : MPlayer\r\n   Video #0\r\n      ID : 0\r\n      Format : MPEG-4 Visual\r\n      Format profile : Advanced   \r\n      Format settings, BVOP : 2\r\n      Format settings, QPel : No\r\n      Format settings, GMC : No warppoints\r\n      Format settings, Matrix : Default (H.263)\r\n      Codec ID : XVID\r\n      Codec ID/Hint : XviD\r\n      Duration : 1h 24mn\r\n      Bit rate : 1 344 Kbps\r\n      Width : 624 pixels\r\n      Height : 352 pixels\r\n      Display aspect ratio : 16:9\r\n      Frame rate : 29.970 fps\r\n      Color space : YUV\r\n      Chroma subsampling : 4:2:0\r\n      Bit depth : 8 bits\r\n      Scan type : Progressive\r\n      Compression mode : Lossy\r\n      Bits/(Pixel*Frame) : 0.204\r\n      Stream size : 813 MiB (91%)\r\n      Writing library : XviD 64\r\n   Audio #1\r\n      ID : 1\r\n      Format : MPEG Audio\r\n      Format version : Version 1\r\n      Format profile : Layer 3\r\n      Mode : Joint stereo\r\n      Mode extension : MS Stereo\r\n      Codec ID : 55\r\n      Codec ID/Hint : MP3\r\n      Duration : 1h 24mn\r\n      Bit rate mode : Variable\r\n      Bit rate : 123 Kbps\r\n      Channel(s) : 2 channels\r\n      Sampling rate : 48.0 KHz\r\n      Compression mode : Lossy\r\n      Stream size : 74.4 MiB (8%)\r\n      Alignment : Aligned on interleaves\r\n      Interleave, duration : 24 ms (0.72 video frame)\r\n      Interleave, preload duration : 456 ms","torrent":{"xt":"urn:btih:c043ff7ada815e7ead79ada19fee87dafe331426","amp;dn":"IMPACT.WRESTLING.2016.05.31.HDTV.XviD-FICEK9","amp;tr":["udp%3A%2F%2Ftracker.leechers-paradise.org%3A6969","udp%3A%2F%2Fzer0day.ch%3A1337","udp%3A%2F%2Fopen.demonii.com%3A1337","udp%3A%2F%2Ftracker.coppersurfer.tk%3A6969","udp%3A%2F%2Fexodus.desync.com%3A6969"],"infoHash":"c043ff7ada815e7ead79ada19fee87dafe331426","infoHashBuffer":{"type":"Buffer","data":[192,67,255,122,218,129,94,126,173,121,173,161,159,238,135,218,254,51,20,38]},"announce":[],"urlList":[]}}